<mxfile host="app.diagrams.net" modified="2024-04-29T14:37:58.507Z" agent="Mozilla/5.0 (Windows NT 10.0; Win64; x64) AppleWebKit/537.36 (KHTML, like Gecko) Chrome/124.0.0.0 Safari/537.36" etag="laCHNc8IMCuFpPvTCk7S" version="24.2.9" type="google">
  <diagram name="Page-1" id="e7e014a7-5840-1c2e-5031-d8a46d1fe8dd">
    <mxGraphModel grid="1" page="1" gridSize="10" guides="1" tooltips="1" connect="1" arrows="1" fold="1" pageScale="1" pageWidth="1169" pageHeight="826" background="none" math="0" shadow="0">
      <root>
        <mxCell id="0" />
        <mxCell id="1" parent="0" />
        <mxCell id="2" value="User" style="swimlane;whiteSpace=wrap" vertex="1" parent="1">
          <mxGeometry x="164.5" y="128" width="280" height="782" as="geometry" />
        </mxCell>
        <mxCell id="UWPWmidhcWCliW1VY-DT-44" style="edgeStyle=orthogonalEdgeStyle;rounded=0;orthogonalLoop=1;jettySize=auto;html=1;exitX=0.5;exitY=1;exitDx=0;exitDy=0;entryX=0.5;entryY=0;entryDx=0;entryDy=0;" edge="1" parent="2" source="ltnaVOQAhtSoJrgSx7IQ-41" target="UWPWmidhcWCliW1VY-DT-43">
          <mxGeometry relative="1" as="geometry" />
        </mxCell>
        <mxCell id="ltnaVOQAhtSoJrgSx7IQ-41" value="Téléchargement CSV" style="rounded=1;whiteSpace=wrap;html=1;" vertex="1" parent="2">
          <mxGeometry x="55" y="92" width="120" height="38" as="geometry" />
        </mxCell>
        <mxCell id="5" value="" style="ellipse;shape=startState;fillColor=#000000;strokeColor=#ff0000;" vertex="1" parent="2">
          <mxGeometry x="100" y="40" width="30" height="30" as="geometry" />
        </mxCell>
        <mxCell id="ltnaVOQAhtSoJrgSx7IQ-44" style="edgeStyle=orthogonalEdgeStyle;rounded=0;orthogonalLoop=1;jettySize=auto;html=1;exitX=0.5;exitY=1;exitDx=0;exitDy=0;entryX=0.5;entryY=0;entryDx=0;entryDy=0;" edge="1" parent="2" source="5" target="ltnaVOQAhtSoJrgSx7IQ-41">
          <mxGeometry relative="1" as="geometry" />
        </mxCell>
        <mxCell id="UWPWmidhcWCliW1VY-DT-43" value="Lancer le script" style="rounded=1;whiteSpace=wrap;html=1;" vertex="1" parent="2">
          <mxGeometry x="55" y="162" width="120" height="38" as="geometry" />
        </mxCell>
        <mxCell id="3" value="Workers" style="swimlane;whiteSpace=wrap" vertex="1" parent="1">
          <mxGeometry x="940" y="128" width="190" height="782" as="geometry" />
        </mxCell>
        <mxCell id="ltnaVOQAhtSoJrgSx7IQ-46" value="Divise l&#39;indexation" style="rounded=1;whiteSpace=wrap;html=1;" vertex="1" parent="3">
          <mxGeometry x="50" y="542" width="120" height="38" as="geometry" />
        </mxCell>
        <mxCell id="4" value="MangoDB" style="swimlane;whiteSpace=wrap" vertex="1" parent="1">
          <mxGeometry x="1130" y="128" width="280" height="782" as="geometry" />
        </mxCell>
        <mxCell id="ltnaVOQAhtSoJrgSx7IQ-75" style="edgeStyle=orthogonalEdgeStyle;rounded=0;orthogonalLoop=1;jettySize=auto;html=1;entryX=0.5;entryY=0;entryDx=0;entryDy=0;" edge="1" parent="4" source="ltnaVOQAhtSoJrgSx7IQ-53" target="ltnaVOQAhtSoJrgSx7IQ-54">
          <mxGeometry relative="1" as="geometry" />
        </mxCell>
        <mxCell id="ltnaVOQAhtSoJrgSx7IQ-53" value="Création de la BDD" style="rounded=1;whiteSpace=wrap;html=1;" vertex="1" parent="4">
          <mxGeometry x="75.5" y="162" width="120" height="38" as="geometry" />
        </mxCell>
        <mxCell id="ltnaVOQAhtSoJrgSx7IQ-54" value="Création de la collection" style="rounded=1;whiteSpace=wrap;html=1;" vertex="1" parent="4">
          <mxGeometry x="75.5" y="236" width="120" height="38" as="geometry" />
        </mxCell>
        <mxCell id="ltnaVOQAhtSoJrgSx7IQ-74" style="edgeStyle=orthogonalEdgeStyle;rounded=0;orthogonalLoop=1;jettySize=auto;html=1;" edge="1" parent="1" source="ltnaVOQAhtSoJrgSx7IQ-54" target="ltnaVOQAhtSoJrgSx7IQ-67">
          <mxGeometry relative="1" as="geometry" />
        </mxCell>
        <mxCell id="UWPWmidhcWCliW1VY-DT-38" value="Processus principal" style="swimlane;whiteSpace=wrap" vertex="1" parent="1">
          <mxGeometry x="445" y="128" width="495" height="782" as="geometry" />
        </mxCell>
        <mxCell id="UWPWmidhcWCliW1VY-DT-48" style="edgeStyle=orthogonalEdgeStyle;rounded=0;orthogonalLoop=1;jettySize=auto;html=1;exitX=0.5;exitY=1;exitDx=0;exitDy=0;entryX=0.5;entryY=0;entryDx=0;entryDy=0;" edge="1" parent="UWPWmidhcWCliW1VY-DT-38" source="ltnaVOQAhtSoJrgSx7IQ-67" target="ltnaVOQAhtSoJrgSx7IQ-66">
          <mxGeometry relative="1" as="geometry" />
        </mxCell>
        <mxCell id="ltnaVOQAhtSoJrgSx7IQ-67" value="Lancement du processus" style="rounded=1;whiteSpace=wrap;html=1;" vertex="1" parent="UWPWmidhcWCliW1VY-DT-38">
          <mxGeometry x="65" y="236" width="120" height="38" as="geometry" />
        </mxCell>
        <mxCell id="ltnaVOQAhtSoJrgSx7IQ-66" value="Le fichier existe t&#39;il ?&amp;nbsp;" style="rhombus;whiteSpace=wrap;html=1;" vertex="1" parent="UWPWmidhcWCliW1VY-DT-38">
          <mxGeometry x="83.5" y="322" width="83" height="83" as="geometry" />
        </mxCell>
        <mxCell id="ltnaVOQAhtSoJrgSx7IQ-79" value="Oui" style="text;html=1;align=center;verticalAlign=middle;resizable=0;points=[];autosize=1;strokeColor=none;fillColor=none;" vertex="1" parent="UWPWmidhcWCliW1VY-DT-38">
          <mxGeometry x="155" y="332" width="40" height="30" as="geometry" />
        </mxCell>
        <mxCell id="ltnaVOQAhtSoJrgSx7IQ-85" value="Non" style="text;html=1;align=center;verticalAlign=middle;resizable=0;points=[];autosize=1;strokeColor=none;fillColor=none;" vertex="1" parent="UWPWmidhcWCliW1VY-DT-38">
          <mxGeometry x="65" y="382" width="50" height="30" as="geometry" />
        </mxCell>
        <mxCell id="ltnaVOQAhtSoJrgSx7IQ-83" value="Chargement du ficher CSV" style="rounded=1;whiteSpace=wrap;html=1;" vertex="1" parent="UWPWmidhcWCliW1VY-DT-38">
          <mxGeometry x="65" y="432" width="120" height="40" as="geometry" />
        </mxCell>
        <mxCell id="ltnaVOQAhtSoJrgSx7IQ-84" style="edgeStyle=orthogonalEdgeStyle;rounded=0;orthogonalLoop=1;jettySize=auto;html=1;entryX=0.5;entryY=0;entryDx=0;entryDy=0;" edge="1" parent="UWPWmidhcWCliW1VY-DT-38" source="ltnaVOQAhtSoJrgSx7IQ-66" target="ltnaVOQAhtSoJrgSx7IQ-83">
          <mxGeometry relative="1" as="geometry" />
        </mxCell>
        <mxCell id="UWPWmidhcWCliW1VY-DT-51" style="edgeStyle=orthogonalEdgeStyle;rounded=0;orthogonalLoop=1;jettySize=auto;html=1;exitX=1;exitY=0.5;exitDx=0;exitDy=0;" edge="1" parent="UWPWmidhcWCliW1VY-DT-38" source="ltnaVOQAhtSoJrgSx7IQ-77" target="ltnaVOQAhtSoJrgSx7IQ-42">
          <mxGeometry relative="1" as="geometry" />
        </mxCell>
        <mxCell id="ltnaVOQAhtSoJrgSx7IQ-77" value="Lecture du fichier CSV" style="rounded=1;whiteSpace=wrap;html=1;" vertex="1" parent="UWPWmidhcWCliW1VY-DT-38">
          <mxGeometry x="225" y="343.5" width="120" height="40" as="geometry" />
        </mxCell>
        <mxCell id="ltnaVOQAhtSoJrgSx7IQ-82" style="edgeStyle=orthogonalEdgeStyle;rounded=0;orthogonalLoop=1;jettySize=auto;html=1;entryX=0;entryY=0.5;entryDx=0;entryDy=0;" edge="1" parent="UWPWmidhcWCliW1VY-DT-38" source="ltnaVOQAhtSoJrgSx7IQ-66" target="ltnaVOQAhtSoJrgSx7IQ-77">
          <mxGeometry relative="1" as="geometry" />
        </mxCell>
        <mxCell id="ltnaVOQAhtSoJrgSx7IQ-86" style="edgeStyle=orthogonalEdgeStyle;rounded=0;orthogonalLoop=1;jettySize=auto;html=1;entryX=0.5;entryY=1;entryDx=0;entryDy=0;" edge="1" parent="UWPWmidhcWCliW1VY-DT-38" source="ltnaVOQAhtSoJrgSx7IQ-83" target="ltnaVOQAhtSoJrgSx7IQ-77">
          <mxGeometry relative="1" as="geometry" />
        </mxCell>
        <mxCell id="UWPWmidhcWCliW1VY-DT-53" style="edgeStyle=orthogonalEdgeStyle;rounded=0;orthogonalLoop=1;jettySize=auto;html=1;exitX=0.5;exitY=1;exitDx=0;exitDy=0;entryX=0.5;entryY=0;entryDx=0;entryDy=0;" edge="1" parent="UWPWmidhcWCliW1VY-DT-38" source="ltnaVOQAhtSoJrgSx7IQ-42" target="UWPWmidhcWCliW1VY-DT-52">
          <mxGeometry relative="1" as="geometry" />
        </mxCell>
        <mxCell id="ltnaVOQAhtSoJrgSx7IQ-42" value="Décomposition du CSV par les workers" style="rounded=1;whiteSpace=wrap;html=1;" vertex="1" parent="UWPWmidhcWCliW1VY-DT-38">
          <mxGeometry x="365" y="343.5" width="120" height="40" as="geometry" />
        </mxCell>
        <mxCell id="ltnaVOQAhtSoJrgSx7IQ-88" style="edgeStyle=orthogonalEdgeStyle;rounded=0;orthogonalLoop=1;jettySize=auto;html=1;exitX=0.5;exitY=1;exitDx=0;exitDy=0;" edge="1" parent="UWPWmidhcWCliW1VY-DT-38" source="ltnaVOQAhtSoJrgSx7IQ-42" target="ltnaVOQAhtSoJrgSx7IQ-42">
          <mxGeometry relative="1" as="geometry" />
        </mxCell>
        <mxCell id="UWPWmidhcWCliW1VY-DT-65" style="edgeStyle=orthogonalEdgeStyle;rounded=0;orthogonalLoop=1;jettySize=auto;html=1;exitX=0.5;exitY=1;exitDx=0;exitDy=0;entryX=0.5;entryY=0;entryDx=0;entryDy=0;" edge="1" parent="UWPWmidhcWCliW1VY-DT-38" source="UWPWmidhcWCliW1VY-DT-52" target="UWPWmidhcWCliW1VY-DT-64">
          <mxGeometry relative="1" as="geometry" />
        </mxCell>
        <mxCell id="UWPWmidhcWCliW1VY-DT-52" value="Suppression des colonnes inutiles" style="rounded=1;whiteSpace=wrap;html=1;" vertex="1" parent="UWPWmidhcWCliW1VY-DT-38">
          <mxGeometry x="365" y="405" width="120" height="40" as="geometry" />
        </mxCell>
        <mxCell id="ltnaVOQAhtSoJrgSx7IQ-47" value="Création des workers" style="rounded=1;whiteSpace=wrap;html=1;" vertex="1" parent="UWPWmidhcWCliW1VY-DT-38">
          <mxGeometry x="365" y="542" width="120" height="38" as="geometry" />
        </mxCell>
        <mxCell id="UWPWmidhcWCliW1VY-DT-66" style="edgeStyle=orthogonalEdgeStyle;rounded=0;orthogonalLoop=1;jettySize=auto;html=1;exitX=0.5;exitY=1;exitDx=0;exitDy=0;entryX=0.5;entryY=0;entryDx=0;entryDy=0;" edge="1" parent="UWPWmidhcWCliW1VY-DT-38" source="UWPWmidhcWCliW1VY-DT-64" target="ltnaVOQAhtSoJrgSx7IQ-47">
          <mxGeometry relative="1" as="geometry" />
        </mxCell>
        <mxCell id="UWPWmidhcWCliW1VY-DT-64" value="Lance la connexion à la&amp;nbsp; BDD" style="rounded=1;whiteSpace=wrap;html=1;" vertex="1" parent="UWPWmidhcWCliW1VY-DT-38">
          <mxGeometry x="365" y="472" width="120" height="38" as="geometry" />
        </mxCell>
        <mxCell id="UWPWmidhcWCliW1VY-DT-58" value="Arrêt des workers" style="rounded=1;whiteSpace=wrap;html=1;" vertex="1" parent="UWPWmidhcWCliW1VY-DT-38">
          <mxGeometry x="166.5" y="632" width="120" height="38" as="geometry" />
        </mxCell>
        <mxCell id="UWPWmidhcWCliW1VY-DT-60" value="Arrêt de la base" style="rounded=1;whiteSpace=wrap;html=1;" vertex="1" parent="UWPWmidhcWCliW1VY-DT-38">
          <mxGeometry x="166.5" y="692" width="120" height="38" as="geometry" />
        </mxCell>
        <mxCell id="38" value="" style="ellipse;shape=endState;fillColor=#000000;strokeColor=#ff0000" vertex="1" parent="UWPWmidhcWCliW1VY-DT-38">
          <mxGeometry x="211.5" y="752" width="30" height="30" as="geometry" />
        </mxCell>
        <mxCell id="UWPWmidhcWCliW1VY-DT-61" style="edgeStyle=orthogonalEdgeStyle;rounded=0;orthogonalLoop=1;jettySize=auto;html=1;exitX=0.5;exitY=1;exitDx=0;exitDy=0;entryX=0.5;entryY=0;entryDx=0;entryDy=0;" edge="1" parent="UWPWmidhcWCliW1VY-DT-38" source="UWPWmidhcWCliW1VY-DT-58" target="UWPWmidhcWCliW1VY-DT-60">
          <mxGeometry relative="1" as="geometry" />
        </mxCell>
        <mxCell id="UWPWmidhcWCliW1VY-DT-63" style="edgeStyle=orthogonalEdgeStyle;rounded=0;orthogonalLoop=1;jettySize=auto;html=1;exitX=0.5;exitY=1;exitDx=0;exitDy=0;entryX=0.5;entryY=0;entryDx=0;entryDy=0;" edge="1" parent="UWPWmidhcWCliW1VY-DT-38" source="UWPWmidhcWCliW1VY-DT-60" target="38">
          <mxGeometry relative="1" as="geometry" />
        </mxCell>
        <mxCell id="UWPWmidhcWCliW1VY-DT-46" style="edgeStyle=orthogonalEdgeStyle;rounded=0;orthogonalLoop=1;jettySize=auto;html=1;exitX=1;exitY=0.5;exitDx=0;exitDy=0;entryX=0;entryY=0.5;entryDx=0;entryDy=0;" edge="1" parent="1" source="UWPWmidhcWCliW1VY-DT-43" target="ltnaVOQAhtSoJrgSx7IQ-53">
          <mxGeometry relative="1" as="geometry" />
        </mxCell>
        <mxCell id="UWPWmidhcWCliW1VY-DT-59" style="edgeStyle=orthogonalEdgeStyle;rounded=0;orthogonalLoop=1;jettySize=auto;html=1;exitX=0.5;exitY=1;exitDx=0;exitDy=0;entryX=0.5;entryY=0;entryDx=0;entryDy=0;" edge="1" parent="1" source="ltnaVOQAhtSoJrgSx7IQ-46" target="UWPWmidhcWCliW1VY-DT-58">
          <mxGeometry relative="1" as="geometry" />
        </mxCell>
        <mxCell id="UWPWmidhcWCliW1VY-DT-67" style="edgeStyle=orthogonalEdgeStyle;rounded=0;orthogonalLoop=1;jettySize=auto;html=1;exitX=1;exitY=0.5;exitDx=0;exitDy=0;entryX=0;entryY=0.5;entryDx=0;entryDy=0;" edge="1" parent="1" source="ltnaVOQAhtSoJrgSx7IQ-47" target="ltnaVOQAhtSoJrgSx7IQ-46">
          <mxGeometry relative="1" as="geometry" />
        </mxCell>
      </root>
    </mxGraphModel>
  </diagram>
</mxfile>
